<?xml version="1.0" encoding="UTF-8" standalone="no"?>
<!DOCTYPE svg PUBLIC "-//W3C//DTD SVG 1.1//EN" "http://www.w3.org/Graphics/SVG/1.1/DTD/svg11.dtd">
<svg width="100%" height="100%" viewBox="0 0 104 22" version="1.1" xmlns="http://www.w3.org/2000/svg" xmlns:xlink="http://www.w3.org/1999/xlink" xml:space="preserve" xmlns:serif="http://www.serif.com/" style="fill-rule:evenodd;clip-rule:evenodd;stroke-linejoin:round;stroke-miterlimit:2;">
    <g transform="matrix(1,0,0,1,-1211.05,-639.39)">
        <g id="g14" transform="matrix(1.33333,0,0,-1.33333,151.618,1022.13)">
            <g id="g10">
                <g id="g12">
                    <g id="g141" serif:id="g14">
                        <g id="g40">
                        </g>
                        <g id="g44">
                        </g>
                        <g id="g48">
                        </g>
                        <g transform="matrix(1.14341,-1.75622e-17,-1.75622e-17,1,-113.946,0)">
                            <g transform="matrix(4.64509,6.56171e-19,9.29784e-20,-0.746538,-4918.8,766.7)">
                                <path d="M1234.06,660.259C1233.71,660.259 1233.46,658.686 1233.34,657.812L1232.99,661.483C1233.08,662.27 1233.43,664.018 1233.98,664.018C1234.71,664.018 1235.07,661.046 1235.07,657.987C1235.07,651.49 1233.75,651.985 1233.75,648.693C1233.75,647.673 1233.86,646.857 1234.07,646.857C1234.37,646.857 1234.53,648.139 1234.6,648.751L1234.99,645.459C1234.9,644.585 1234.6,643.012 1234.12,643.012C1233.53,643.012 1233.11,645.663 1233.11,649.043C1233.11,655.481 1234.43,655.044 1234.43,658.278C1234.43,659.356 1234.31,660.259 1234.06,660.259Z" style="fill:rgb(59,186,154);fill-rule:nonzero;"/>
                                <g transform="matrix(1.02323,-8.6804e-19,1.99283e-20,1.01522,-28.6894,-10.1018)">
                                    <path d="M1235.84,663.726L1236.47,663.726L1236.47,646.974L1237.18,646.974L1237.18,643.303L1235.13,643.303L1235.13,646.974L1235.84,646.974L1235.84,663.726Z" style="fill:rgb(59,186,154);fill-rule:nonzero;"/>
                                </g>
                                <g id="g128" transform="matrix(0.188281,-2.04088e-17,3.33343e-18,-1.33952,1239.27,653.605)">
                                    <path id="path130" d="M0,0C0,3.366 -1.09,5.168 -3.273,5.168C-4.837,5.168 -6.448,4.196 -6.448,0.166C-6.448,-3.627 -5.05,-4.86 -3.153,-4.86C-1.517,-4.86 0,-3.888 0,0M-10.432,0.071C-10.432,5.642 -7.492,8.297 -3.153,8.297C1.256,8.297 3.958,5.547 3.958,0.166C3.958,-5.286 1.09,-8.012 -3.295,-8.012C-7.753,-8.012 -10.432,-5.192 -10.432,0.071" style="fill:rgb(59,186,154);fill-rule:nonzero;"/>
                                </g>
                                <g transform="matrix(1.03143,-1.47007e-18,3.37494e-20,1.01787,-38.9804,-11.8586)">
                                    <path d="M1240.28,643.303L1240.28,663.726L1240.9,663.726L1240.9,656.122L1240.94,656.122C1241.07,656.122 1241.15,656.355 1241.2,657.084L1241.68,663.726L1242.42,663.726L1241.99,658.103C1241.85,656.384 1241.76,655.627 1241.61,655.103L1241.61,654.986C1241.94,654.52 1242.21,652.859 1242.21,649.305C1242.21,645.022 1241.85,643.303 1241.22,643.303L1240.28,643.303ZM1240.9,646.974L1241.15,646.974C1241.42,646.974 1241.58,647.819 1241.58,649.684C1241.58,651.577 1241.47,652.597 1241.14,652.597L1240.9,652.597L1240.9,646.974Z" style="fill:rgb(59,186,154);fill-rule:nonzero;"/>
                                </g>
                                <g transform="matrix(1.04397,-3.40371e-18,7.81417e-20,1.01257,-54.65,-8.34493)">
                                    <path d="M1244.54,663.726L1244.54,660.055L1243.41,660.055L1243.41,655.19L1244.34,655.19L1244.34,651.519L1243.41,651.519L1243.41,646.974L1244.49,646.974L1244.49,643.303L1242.79,643.303L1242.79,663.726L1244.54,663.726Z" style="fill:rgb(59,186,154);fill-rule:nonzero;"/>
                                </g>
                            </g>
                            <g transform="matrix(1,0,0,1,-109.667,-0.853652)">
                                <g id="g88" transform="matrix(1,0,0,1,906.633,271.982)">
                                    <path id="path90" d="M0,0L1.369,0L1.369,3.025C1.029,2.903 0.681,2.785 0.312,2.679C-0.484,2.534 -0.82,0.958 0,0" style="fill:rgb(59,186,154);fill-rule:nonzero;"/>
                                </g>
                                <g id="g92" transform="matrix(1,0,0,1,910.08,281.814)">
                                    <path id="path94" d="M0,0L0.08,0.08C-2.09,-1.527 -3.939,-3.296 -4.341,-5.788C-6.302,0.032 -0.126,2.554 2.679,5.369C2.009,5.518 1.277,5.593 0.493,5.593L-5.841,5.593L-5.841,-9.833L-4.055,-9.833C-5.439,-8.696 -4.777,-4.436 0,0" style="fill:rgb(59,186,154);fill-rule:nonzero;"/>
                                </g>
                                <g id="g96" transform="matrix(1,0,0,1,915.039,286.201)">
                                    <path id="path98" d="M0,0C0.608,-3.399 -0.375,-7.395 -4.386,-9.92C-0.236,-9.7 1.984,-7.821 1.984,-4.38C1.984,-2.356 1.253,-0.912 0,0" style="fill:rgb(59,186,154);fill-rule:nonzero;"/>
                                </g>
                            </g>
                        </g>
                    </g>
                </g>
            </g>
        </g>
    </g>
</svg>
